<svg preserveAspectRatio="none" width="100%" height="100%" overflow="visible" style="display: block;" viewBox="0 0 30 30" fill="none" xmlns="http://www.w3.org/2000/svg">
<g id="Group 6963">
<g id="Rectangle 10932">
</g>
<g id="Icon">
<mask id="path-1-inside-1_0_157" fill="white">
<path fill-rule="evenodd" clip-rule="evenodd" d="M25.4092 18.6487H25.1488C24.1596 18.6487 23.3265 17.8157 23.3265 16.8264V10.8388C23.3265 6.10075 19.3695 2.29991 14.5794 2.50818C10.1017 2.71644 6.66531 6.56935 6.66531 11.0991V16.8785C6.66531 17.8677 5.83224 18.6487 4.84298 18.6487H4.58265C3.43719 18.6487 2.5 19.638 2.5 20.7835V21.5644C2.5 21.9289 2.86446 22.2934 3.28099 22.2934H26.7108C27.1274 22.2934 27.4918 21.9289 27.4918 21.5124V20.7314C27.4918 19.5859 26.5546 18.6487 25.4092 18.6487ZM17.5463 24.375H12.4438C12.1314 24.375 11.8711 24.6874 11.9232 24.9998C12.1835 26.4577 13.4852 27.499 14.9951 27.499C16.505 27.499 17.8067 26.4056 18.067 24.9998C18.1191 24.6874 17.8587 24.375 17.5463 24.375Z"/>
</mask>
<path d="M14.5794 2.50818L14.5099 0.909679L14.505 0.909904L14.5794 2.50818ZM11.9232 24.9998L10.3449 25.2628L10.3465 25.272L10.3481 25.2811L11.9232 24.9998ZM18.067 24.9998L19.6402 25.2911L19.6429 25.277L19.6452 25.2628L18.067 24.9998ZM25.4092 18.6487V17.0487H25.1488V18.6487V20.2487H25.4092V18.6487ZM25.1488 18.6487V17.0487C25.1103 17.0487 25.0532 17.0323 24.9981 16.9772C24.943 16.9221 24.9265 16.8649 24.9265 16.8264H23.3265H21.7265C21.7265 18.6993 23.2759 20.2487 25.1488 20.2487V18.6487ZM23.3265 16.8264H24.9265V10.8388H23.3265H21.7265V16.8264H23.3265ZM23.3265 10.8388H24.9265C24.9265 5.18572 20.2059 0.662032 14.5099 0.909687L14.5794 2.50818L14.6489 4.10667C18.533 3.93779 21.7265 7.01579 21.7265 10.8388H23.3265ZM14.5794 2.50818L14.505 0.909904C9.1075 1.16095 5.06531 5.78228 5.06531 11.0991H6.66531H8.26531C8.26531 7.35642 11.0959 4.27193 14.6537 4.10645L14.5794 2.50818ZM6.66531 11.0991H5.06531V16.8785H6.66531H8.26531V11.0991H6.66531ZM6.66531 16.8785H5.06531C5.06531 16.9095 5.05542 16.9435 5.0166 16.9808C4.97453 17.0212 4.91317 17.0487 4.84298 17.0487V18.6487V20.2487C6.65497 20.2487 8.26531 18.8111 8.26531 16.8785H6.66531ZM4.84298 18.6487V17.0487H4.58265V18.6487V20.2487H4.84298V18.6487ZM4.58265 18.6487V17.0487C2.50284 17.0487 0.9 18.8059 0.9 20.7835H2.5H4.1C4.1 20.6497 4.15597 20.5084 4.26216 20.3986C4.36619 20.291 4.48239 20.2487 4.58265 20.2487V18.6487ZM2.5 20.7835H0.9V21.5644H2.5H4.1V20.7835H2.5ZM2.5 21.5644H0.9C0.9 22.2726 1.2405 22.8516 1.62954 23.223C2.02772 23.603 2.60587 23.8934 3.28099 23.8934V22.2934V20.6934C3.53959 20.6934 3.72724 20.8015 3.83906 20.9082C3.94173 21.0062 4.1 21.2208 4.1 21.5644H2.5ZM3.28099 22.2934V23.8934H26.7108V22.2934V20.6934H3.28099V22.2934ZM26.7108 22.2934V23.8934C28.011 23.8934 29.0918 22.8126 29.0918 21.5124H27.4918H25.8918C25.8918 21.2498 26.0038 21.0501 26.1262 20.9277C26.2485 20.8054 26.4483 20.6934 26.7108 20.6934V22.2934ZM27.4918 21.5124H29.0918V20.7314H27.4918H25.8918V21.5124H27.4918ZM27.4918 20.7314H29.0918C29.0918 18.7023 27.4383 17.0487 25.4092 17.0487V18.6487V20.2487C25.671 20.2487 25.8918 20.4696 25.8918 20.7314H27.4918ZM17.5463 24.375V22.775H12.4438V24.375V25.975H17.5463V24.375ZM12.4438 24.375V22.775C11.1161 22.775 10.1347 24.0016 10.3449 25.2628L11.9232 24.9998L13.5014 24.7368C13.5619 25.1 13.4353 25.4033 13.276 25.5946C13.117 25.7853 12.8318 25.975 12.4438 25.975V24.375ZM11.9232 24.9998L10.3481 25.2811C10.7527 27.5468 12.7564 29.099 14.9951 29.099V27.499V25.899C14.2139 25.899 13.6143 25.3685 13.4983 24.7185L11.9232 24.9998ZM14.9951 27.499V29.099C17.2591 29.099 19.2364 27.4721 19.6402 25.2911L18.067 24.9998L16.4937 24.7085C16.377 25.3391 15.7509 25.899 14.9951 25.899V27.499ZM18.067 24.9998L19.6452 25.2628C19.8554 24.0016 18.874 22.775 17.5463 22.775V24.375V25.975C17.1583 25.975 16.8732 25.7853 16.7142 25.5946C16.5548 25.4033 16.4282 25.1 16.4888 24.7368L18.067 24.9998Z" fill="var(--stroke-0, #2E617B)" mask="url(#path-1-inside-1_0_157)"/>
</g>
<path id="Icon_2" fill-rule="evenodd" clip-rule="evenodd" d="M24.9924 18.6487H24.7321C23.7428 18.6487 22.9098 17.8157 22.9098 16.8264V10.8388C22.9098 6.10075 18.9527 2.29991 14.1626 2.50818C9.68493 2.71644 6.24856 6.56935 6.24856 11.0991V16.8785C6.24856 17.8677 5.4155 18.6487 4.42624 18.6487H4.1659C3.02045 18.6487 2.08325 19.638 2.08325 20.7835V21.5644C2.08325 21.9289 2.44772 22.2934 2.86425 22.2934H26.2941C26.7106 22.2934 27.0751 21.9289 27.0751 21.5124V20.7314C27.0751 19.5859 26.1379 18.6487 24.9924 18.6487ZM17.1296 24.375H12.0271C11.7147 24.375 11.4544 24.6874 11.5064 24.9998C11.7668 26.4577 13.0684 27.499 14.5783 27.499C16.0883 27.499 17.3899 26.4056 17.6502 24.9998C17.7023 24.6874 17.442 24.375 17.1296 24.375Z" fill="var(--fill-0, #005288)"/>
</g>
</svg>
