<svg preserveAspectRatio="none" width="100%" height="100%" overflow="visible" style="display: block;" viewBox="0 0 32 20" fill="none" xmlns="http://www.w3.org/2000/svg">
<g id="Frame">
<path id="Vector" d="M10.9013 19.2105V6.91612H7.0773V19.2105H10.9013ZM9.00987 5.23026C9.58553 5.23026 10.1201 5.02467 10.5724 4.57237C10.9836 4.16118 11.2303 3.62664 11.2303 3.00987C11.2303 2.43421 10.9836 1.89967 10.5724 1.44737C10.1201 1.03618 9.58553 0.789473 9.00987 0.789473C8.39309 0.789473 7.85855 1.03618 7.44737 1.44737C6.99507 1.89967 6.78947 2.43421 6.78947 3.00987C6.78947 3.62664 6.99507 4.16118 7.44737 4.57237C7.85855 5.02467 8.39309 5.23026 9.00987 5.23026ZM25.2105 19.2105V12.4672C25.2105 10.5757 24.9227 9.17763 24.3882 8.27303C23.648 7.16283 22.4145 6.58717 20.6464 6.58717C19.7418 6.58717 19.0017 6.83388 18.3438 7.24506C17.7269 7.61514 17.2746 8.06743 17.028 8.60198H16.9868V6.91612H13.3273V19.2105H17.1102V13.1251C17.1102 12.1793 17.2336 11.4392 17.5214 10.9457C17.8503 10.2878 18.4672 9.95888 19.3717 9.95888C20.2352 9.95888 20.8108 10.3289 21.1398 11.0691C21.3043 11.5214 21.3865 12.2204 21.3865 13.2073V19.2105H25.2105Z" fill="var(--fill-0, #1D1C1D)"/>
</g>
</svg>
