<svg preserveAspectRatio="none" width="100%" height="100%" overflow="visible" style="display: block;" viewBox="0 0 28.8 18" fill="none" xmlns="http://www.w3.org/2000/svg">
<g id="Frame" clip-path="url(#clip0_0_147)">
<path id="Vector" d="M26.6813 2.8125C26.8687 3.65626 27.0563 4.96874 27.15 6.65626L27.1969 9L27.15 11.3437C27.0563 13.125 26.8687 14.3906 26.6813 15.2344C26.4937 15.7969 26.2126 16.2656 25.8374 16.6406C25.4156 17.0626 24.9469 17.3437 24.3844 17.4844C23.5406 17.7187 21.6656 17.8594 18.6656 17.9531L14.4 18L10.1344 17.9531C7.13437 17.8594 5.2125 17.7187 4.41563 17.4844C3.85313 17.3437 3.3375 17.0626 2.9625 16.6406C2.54063 16.2656 2.25937 15.7969 2.11875 15.2344C1.88437 14.3906 1.74375 13.125 1.65 11.3437L1.60313 9C1.60313 8.34374 1.60313 7.54687 1.65 6.65626C1.74375 4.96874 1.88437 3.65626 2.11875 2.8125C2.25937 2.25 2.54063 1.78126 2.9625 1.35937C3.3375 0.984374 3.85313 0.703125 4.41563 0.515625C5.2125 0.328125 7.13437 0.140625 10.1344 0.0468747L14.4 -2.98023e-07L18.6656 0.0468747C21.6656 0.140625 23.5406 0.328125 24.3844 0.515625C24.9469 0.703125 25.4156 0.984374 25.8374 1.35937C26.2126 1.78126 26.4937 2.25 26.6813 2.8125ZM11.775 12.8437L18.4781 9L11.775 5.20313V12.8437Z" fill="var(--fill-0, #1D1C1D)"/>
</g>
<defs>
<clipPath id="clip0_0_147">
<rect width="28.8" height="18" fill="white"/>
</clipPath>
</defs>
</svg>
